# xmcd
#
# Track frame offsets: 
#        150
#        16616
#        31010
#        52841
#        66232
#        83798
#        101896
#        115881
#        133399
#        148451
#
# Disc length: 2189 seconds
#
# Revision: 0
# Processed by: cddbd v1.5.2PL0 Copyright (c) Steve Scherf et al.
# Submitted via: ExactAudioCopy v1.0b4
#
DISCID=88088b0a
DTITLE=Reddog - Reddog (LP)
DYEAR=1987
DGENRE=Blues
TTITLE0=Angel From Atlanta
TTITLE1=Steady Roller
TTITLE2=Down, Down, Down
TTITLE3=Juke Jumper
TTITLE4=Free As A Breeze
TTITLE5=Redneck Rocker
TTITLE6=Shufflin' In Savannah
TTITLE7=It's Raining
TTITLE8=Lover Man
TTITLE9=Soul
EXTD=
EXTT0=
EXTT1=
EXTT2=
EXTT3=
EXTT4=
EXTT5=
EXTT6=
EXTT7=
EXTT8=
EXTT9=
PLAYORDER=
